<svg xmlns="http://www.w3.org/2000/svg" width="24" height="24" viewBox="0 0 24 24" class="filter-rating__star" title="1"><path d="M12.388 18.129a.75.75 0 0 0-.777 0l-4.639 2.813a.75.75 0 0 1-1.124-.79l1.134-5.622a.75.75 0 0 0-.219-.693l-4.09-3.876a.75.75 0 0 1 .433-1.29l5.407-.6a.75.75 0 0 0 .608-.452l2.188-5.162a.75.75 0 0 1 1.381 0l2.188 5.162a.75.75 0 0 0 .608.452l5.407.6a.75.75 0 0 1 .433 1.29l-4.09 3.876a.75.75 0 0 0-.22.693l1.135 5.622a.75.75 0 0 1-1.124.79l-4.639-2.813Z" fill="#cecece"></path></svg>