<?xml version="1.0" encoding="utf-8"?>
<!-- Generator: Adobe Illustrator 26.0.3, SVG Export Plug-In . SVG Version: 6.00 Build 0)  -->
<svg version="1.1" id="Слой_1" xmlns="http://www.w3.org/2000/svg" xmlns:xlink="http://www.w3.org/1999/xlink" x="0px" y="0px"
	 viewBox="0 0 388.6 388.6" style="enable-background:new 0 0 388.6 388.6;" xml:space="preserve">
<style type="text/css">
	.st0{opacity:0.84;fill:none;stroke:#000000;stroke-width:2;stroke-miterlimit:10;enable-background:new    ;}
	.st1{fill:none;stroke:#000000;stroke-linecap:round;stroke-linejoin:round;}
	.st2{fill:none;stroke:#000000;stroke-linecap:round;stroke-miterlimit:10;}
	.st3{opacity:0.84;}
	.st4{fill:#FFFFFF;}
	.st5{fill:#36A9E1;}
	.st6{font-family:'Cambria-Bold';}
	.st7{font-size:22px;}
	.st8{letter-spacing:3.9;}
	.st9{letter-spacing:3.1;}
	.st10{opacity:0.88;}
	.st11{fill:url(#SVGID_1_);stroke:url(#SVGID_00000174582988800335362150000004765635445469742752_);stroke-miterlimit:10;}
	
		.st12{fill:url(#SVGID_00000088825952577215675950000012738562645036524929_);stroke:url(#SVGID_00000111189439094511170090000007603384649279254950_);stroke-miterlimit:10;}
	.st13{fill:none;stroke:url(#SVGID_00000121993033153557571300000007583718494426912141_);stroke-miterlimit:10;}
	.st14{fill:none;stroke:url(#SVGID_00000163063081596162961760000008752207936671778961_);stroke-miterlimit:10;}
	
		.st15{fill:url(#SVGID_00000047020745420142451980000018043267134465239947_);stroke:url(#SVGID_00000182523341172408739350000010310951949029450911_);stroke-miterlimit:10;}
	
		.st16{fill:url(#SVGID_00000150790412079638359400000015454100059846165664_);stroke:url(#SVGID_00000003787369963471230960000015387521629309605013_);stroke-miterlimit:10;}
	.st17{fill:none;stroke:url(#SVGID_00000024719086027805971600000014821277820462814904_);stroke-miterlimit:10;}
	.st18{fill:none;stroke:url(#SVGID_00000075869537390771056330000010618812521078101140_);stroke-miterlimit:10;}
	.st19{font-size:101px;}
	.st20{letter-spacing:21;}
</style>
<g id="Слой_2_00000043417679620755719580000012274673238760175767_">
	<g id="Слой_1-2">
		<g id="Слой_2-2">
			<circle class="st0" cx="194.3" cy="194.3" r="193.3"/>
			<path d="M41.2,121.2c14-31.6,35.9-57.5,65.2-75.9c4.8-3.2,9.7-6,14.9-8.5c2.7-1.2,5.6-2.6,8.7-2.4c2.2,0.2,3.8,2,3.7,4.2
				c-0.2,2.8-1.5,4.8-2.7,7c-0.7,1.2-2.3,1.5-3.4,0.7c-1.1-0.7-1.4-2.1-0.9-3.2c0.7-1.1,1.3-2.2,1.8-3.4c0.2-0.4,0.3-0.8,0.4-1.2
				c0-0.1,0,0,0.1,0.3c0.1,0.2,0.3,0.3,0.5,0.4c-2-0.1-4.4,1-6.3,1.8c-5,2.2-9.9,4.9-14.5,7.8c-9.5,5.8-18.5,12.4-26.8,19.7
				c-16.6,14.8-29.6,33.4-39.3,53.4c-0.2,0.4-0.6,0.6-1,0.4c0,0,0,0,0,0C41.2,122,41,121.5,41.2,121.2z"/>
			<path d="M348,121.8c-14.6-30.7-36.8-55.7-66-73.1c-4.7-2.9-9.5-5.5-14.5-7.8c-2-0.8-4.4-1.9-6.3-1.8c0.1-0.1,0.4-0.2,0.5-0.4
				s0.1-0.4,0.1-0.3c0,0.4,0.2,0.8,0.4,1.2c0.5,1.1,1.1,2.3,1.8,3.3c0.7,1.2,0.3,2.7-0.9,3.4c-1.1,0.6-2.5,0.3-3.3-0.7
				c-1.2-2.2-2.6-4.2-2.8-7.1c-0.2-2.2,1.5-4,3.6-4.2c0,0,0,0,0.1,0c3.1-0.2,6,1.2,8.7,2.4c5.2,2.5,10.1,5.3,14.9,8.5
				c19,12.2,36.1,27.7,48.7,46.5c6.3,9.3,11.8,19.1,16.5,29.4c0.2,0.4,0,0.8-0.3,1c0,0,0,0-0.1,0c-0.3,0.2-0.7,0.2-1-0.1
				C348.1,121.9,348,121.9,348,121.8L348,121.8z"/>
			<path d="M168.4,353.8c5.3,2.4,10.9,3.8,16.7,4l2.9,0.1c1.7,0.1,4.4,0.1,4.5,2.4c-0.1,0.9-0.6,1.8-1.4,2.3
				c-2.4,1.6-5.4,2.2-7.7,3.7c-0.1,0,0,0.1,0.2-0.4c0.1-0.2,0.1-0.3,0.1-0.5c0-0.5-0.3-1-0.7-1.3c5.4,0.6,10.9,0.8,16.4,0.6
				c1.3,0,2.5-0.1,3.7-0.2c-0.3,0.1-0.5,0.3-0.7,0.5c-0.4,0.5-0.6,1.2-0.3,1.8l0,0c-1.4-1.1-3-2-4.6-2.8c-1.2-0.8-2.2-1.2-3-2.6
				c-0.2-0.5-0.3-1-0.2-1.5c0.2-0.7,0.6-1.3,1.3-1.6c0.9-0.3,1.8-0.5,2.7-0.4c3.4,0.1,8.2,0.5,11.5,0c3.8-0.4,7.6-1.3,11.2-2.7
				c-6.5,4.5-14.9,6-22.7,6c-0.4,0-0.8,0.1-1.2,0.2c0.4-0.1,0.7-0.9,0.7-1.3c0-0.1-0.1-0.2-0.1-0.3c-0.1-0.2-0.1-0.1,0-0.1
				c2.2,1.5,4.8,2.2,7,4c0.7,0.6,1.2,1.4,1.3,2.3c0,0.8-0.3,1.6-1,2.1c-0.5,0.3-1,0.4-1.6,0.5c-5.3,0.5-10.5,0.6-15.8,0.2
				c-2.2-0.2-4.4-0.2-6.5-1.1c-1.2-0.5-1.7-1.8-1.4-3c0.7-1.6,1.7-1.9,2.8-2.5c2.2-1,4.5-1.5,6.6-2.6c0.1-0.1,0.2-0.2,0.1,0
				c-0.1,0.2-0.2,0.5-0.2,0.7c0,0.4,0.2,0.8,0.6,1c-3.5-0.8-7.3-1-10.8-2.2C175,358.1,171.5,356.3,168.4,353.8L168.4,353.8z"/>
			<path d="M303.9,321.4c-1.4-3.8-14.5-1.6-18.1-1.5c-19.2,2.2-38.4,4.8-57.7,6c-38.6,2.8-77.5,1-115.9-3.5
				c-6.4-0.7-12.8-1.5-19.2-1.8c-7.2-0.5-15.5,0.4-6.3,8.2c5,4.1,10.6,7.2,16.3,10.3c11.4,6,23.2,11.3,35.3,15.7
				c2.3,0.7,4.6,1.7,6.9,1.9c0.2,0,0.4,0,0.4-0.1c-0.1-0.4-0.8-0.8-1.1-1.1c-5.1-4.1-31.6-17.5-28.6-24.2c2.1-4.5,23.3-0.5,28.4-0.3
				c19.2,2.1,38.6,3.5,57.9,2.9s38.6-2.9,57.7-5.5c5.1-0.5,24.5-4.2,16.1,6.2c-7.9,8.1-18.3,13.3-27.8,19.2
				c-1.5,0.9-2.9,1.8-4.3,2.9c-0.1-0.1,0,0,0.1,0C253.2,354.7,305.8,330.5,303.9,321.4L303.9,321.4z M304.5,321.2
				c4.6,10.8-81.1,47-56.6,32.3c9.5-5.9,19.9-11,27.8-19.1c8.3-10-11.1-6.3-15.9-5.9c-31.9,4.6-64.2,7.1-96.4,4.4
				c-6.4-0.5-12.9-1.1-19.3-1.8s-12.8-1.5-19.3-1.7c-9.6-0.5-12.7,2.7-4.5,9.8c7.6,6.6,17,10.9,25,16.9c0.1,0.2,0.3,0.3,0.3,0.7
				c-0.1,0.1-0.2,0.2-0.4,0.2c-2.6,0-5-1.2-7.4-1.9c-6.1-2.1-12.1-4.6-18-7.2c-8.9-3.9-17.5-8.2-25.9-13.1
				c-9.3-5.4-21.5-15.8-1.3-14.7c6.5,0.3,12.9,1.1,19.3,1.7c38.4,4.4,77.2,5.9,115.8,3.2c19.3-1.2,38.5-3.7,57.7-5.8
				C289.9,319,303,316.7,304.5,321.2z"/>
			<path class="st1" d="M313.3,312.3c10.2-7.9,19.1-17.2,26.4-27.8c5.7-8.2,10.3-17.1,13.9-26.4"/>
			<path class="st1" d="M76.8,312.3c-10.2-7.9-19.1-17.2-26.4-27.8c-5.7-8.2-10.3-17.1-13.9-26.4"/>
			<path class="st1" d="M199.7,234.5c0,0,15-70.1,111.9-80l7,11.1l-2.6,0.3c1.9,1.3,3.5,2.9,4.7,4.8c1.1,1.8,2,3.8,2.4,5.9h-11.6
				l9.8,13.9C321.4,190.7,253.4,183.9,199.7,234.5z"/>
			<path class="st2" d="M316,166c-22.2-2.1-44.5,2.2-64.3,12.5c-33.8,17.7-48,46.9-52,56"/>
			<path class="st2" d="M320.8,170.8c-49-4.6-96.2,20-120.6,62.8"/>
			<path class="st2" d="M311.6,176.8c-44.5-1.7-86.8,19.8-111.5,56.9"/>
			<path class="st2" d="M316.9,184.3c-44-2.9-86.7,15.1-115.4,48.5"/>
			<path class="st1" d="M190.2,233.7c0,0-15-70.1-111.9-80l-7,11.1l2.6,0.3c-1.9,1.3-3.5,2.9-4.7,4.8c-1.1,1.8-2,3.8-2.4,5.9h11.6
				l-9.8,13.9C68.4,189.8,136.4,183.1,190.2,233.7z"/>
			<path class="st2" d="M73.8,165.2c22.2-2.1,44.5,2.2,64.3,12.5c33.8,17.7,48,46.9,52,56"/>
			<path class="st2" d="M69.1,170c23.1-2.1,46.3,2.2,67.1,12.4c22.4,11.2,41,28.7,53.5,50.4"/>
			<path class="st2" d="M78.2,175.9c44.5-1.7,86.8,19.8,111.5,56.9"/>
			<path class="st2" d="M72.9,183.5c44-2.9,86.7,15.1,115.4,48.5"/>
			<g class="st3">
				<path class="st4" d="M188.3,237.5c0,0-62.5-49.2-126-34.9"/>
				<path class="st5" d="M188.2,237.7c-31.1-22.4-70.3-39-109.2-36.6c-5.6,0.4-11.1,1.2-16.5,2.4c-0.5,0.1-1.1-0.2-1.2-0.7
					c-0.1-0.5,0.2-1,0.7-1.1c0,0,0.1,0,0.1,0c5.5-1.2,11.2-1.9,16.8-2.3c28.3-1.6,56.2,7.1,81.1,20c10,5.1,19.5,11.1,28.5,17.9
					c0.1,0.1,0.1,0.2,0,0.4S188.3,237.8,188.2,237.7L188.2,237.7z"/>
			</g>
			<circle class="st2" cx="194.3" cy="194.3" r="179.9"/>
			<path class="st1" d="M311.9,123.2l4.4,7.2l1.9,3.1c0,0-83.2,13.2-117.9,89.9C200.3,223.4,211.4,152.3,311.9,123.2z"/>
			<path class="st1" d="M316.3,130.4c0,0-86.5,14.7-114.5,89.9"/>
			<path d="M281.2,83.6h0.4c1.9,0.4,3.1,2.4,3.7,3.3V87c1.9,3,4,5.8,6.3,8.5c1.7,2.1,3.5,4.3,5.1,6.6c3.4,5,6.5,8.7,8.7,11.4
				c3,3.6,4.8,5.7,4.1,7c-0.6,1.1-2.4,1.3-3,1.4h-0.1c-15.2,2.3-46,19.9-59,29.2c-14.2,10.1-23.4,21.4-28.9,28.2
				c-4.4,5.3-8.3,11-11.7,17c-2.9,5.3-7,12.5-9.1,22.7c-0.2,0.8-0.3,1.6-0.5,2.3v-0.6c0-18.2,0-27.3,0.4-34c1.4-22,2.1-33.1,7.1-44
				c8.9-19.3,25.1-31.2,30.5-35.1c5-3.7,11.1-7.4,13.5-8.8c4.6-2.8,9.3-5.3,14.2-7.5c2.7-1.3,5.4-2.6,8.9-4.4c1.5-0.8,3-1.4,4.6-2
				C277.9,84.3,279.5,83.8,281.2,83.6 M281.2,82.6c-0.8,0-2.2,0.2-5.3,1.5s-4.7,2.1-4.7,2.1c-8.6,4.7-12.6,5.7-23.1,12
				c-1.7,1-8.2,4.9-13.6,8.9s-21.7,16-30.8,35.5c-5.1,11.1-5.8,22.2-7.2,44.4c-0.4,6.7-0.4,15.8-0.4,34.1c0,3.3,0,11.4,0.5,11.4l0,0
				c0.4,0,0.4-5.8,1.9-12.9c2.1-9.8,6-16.9,9-22.4c3.4-6,7.3-11.6,11.7-16.9c5.4-6.7,14.6-18,28.7-28c13.7-9.8,44.1-26.8,58.6-29
				c0.8-0.1,3-0.4,3.8-2c1.7-3.2-4.7-7.2-12.9-19.5c-3.5-5.2-8.1-9.7-11.3-15.1c-0.6-1-2-3.3-4.3-3.8
				C281.7,82.7,281.4,82.6,281.2,82.6L281.2,82.6z"/>
			<path class="st1" d="M79.3,123.2l-4.4,7.2l-1.9,3.1c0,0,83.2,13.2,117.9,89.9C190.8,223.4,179.7,152.3,79.3,123.2z"/>
			<path class="st1" d="M74.9,130.4c0,0,86.5,14.7,114.5,89.9"/>
			<path d="M109.9,83.6c1.7,0.2,3.4,0.6,4.9,1.4c1.6,0.6,3.1,1.2,4.6,2c3.5,1.9,6.2,3.2,8.9,4.4c4.9,2.2,9.6,4.7,14.2,7.5
				c2.4,1.4,8.5,5.1,13.5,8.8c5.3,3.9,21.5,15.8,30.5,35.1c5.1,10.9,5.8,22,7.1,44c0.4,6.7,0.4,15.8,0.4,34v0.6
				c-0.1-0.8-0.3-1.5-0.5-2.3c-2.2-10.2-6.2-17.4-9.1-22.7c-3.4-6-7.3-11.7-11.7-17c-5.5-6.8-14.7-18.1-28.9-28.2
				c-13-9.3-43.9-26.9-59-29.2h-0.1c-0.7-0.1-2.5-0.4-3-1.4c-0.7-1.3,1.1-3.4,4.1-7c3.1-3.6,6-7.4,8.7-11.4c1.6-2.3,3.3-4.5,5.1-6.6
				c2.3-2.7,4.4-5.5,6.3-8.5V87c0.6-0.9,1.7-2.9,3.7-3.3C109.7,83.6,109.8,83.6,109.9,83.6 M109.9,82.6c-0.3,0-0.5,0-0.6,0.1
				c-2.4,0.5-3.8,2.8-4.3,3.8c-3.2,5.4-7.8,9.9-11.3,15.1c-8.2,12.3-14.5,16.3-12.9,19.5c0.8,1.6,3,1.9,3.8,2
				c14.5,2.2,44.9,19.2,58.6,29c14.1,10,23.3,21.3,28.7,28c4.4,5.3,8.3,10.9,11.7,16.9c4.2,6.9,7.2,14.5,9,22.4
				c1.5,7.1,1.5,12.9,1.9,12.9l0,0c0.5,0,0.5-8.1,0.5-11.4c0-18.3,0-27.4-0.4-34.1c-1.4-22.2-2.1-33.3-7.2-44.4
				c-9-19.5-25.3-31.5-30.8-35.5S144.7,99,143,98c-10.5-6.3-14.5-7.3-23.1-12c0,0-1.7-0.9-4.7-2.1C113.5,83.2,111.7,82.8,109.9,82.6
				z"/>
			<text transform="matrix(1.27 0 0 1 89 315.9598)" class="st6 st7 st8">BOOK</text>
			<text transform="matrix(1.27 0 0 1 184.8848 315.9598)" class="st6 st7 st9">S</text>
			<text transform="matrix(1.27 0 0 1 203.8208 315.9598)" class="st6 st7 st9">T</text>
			<text transform="matrix(1.27 0 0 1 225.8301 315.9598)" class="st6 st7 st8">ORE</text>
			<g class="st10">
				
					<linearGradient id="SVGID_1_" gradientUnits="userSpaceOnUse" x1="58.8" y1="141.34" x2="193.8007" y2="141.34" gradientTransform="matrix(1 0 0 -1 0 387.89)">
					<stop  offset="0" style="stop-color:#FFD308"/>
					<stop  offset="0.49" style="stop-color:#ED6D35"/>
				</linearGradient>
				
					<linearGradient id="SVGID_00000102529785021554935030000014408713223918590363_" gradientUnits="userSpaceOnUse" x1="58.3" y1="141.3393" x2="194.3007" y2="141.3393" gradientTransform="matrix(1 0 0 -1 0 387.89)">
					<stop  offset="0" style="stop-color:#ECF0FA"/>
					<stop  offset="1" style="stop-color:#4B8FCC"/>
				</linearGradient>
				
					<path style="fill:url(#SVGID_1_);stroke:url(#SVGID_00000102529785021554935030000014408713223918590363_);stroke-miterlimit:10;" d="
					M62.3,223.4h95.6l22.9,12.2l-33.1,2.1L186,238c0,0-14.6,15.8,7.8,28.3c0,0,0.2,2.7-6.3,3.4c-0.7,0-1.3-0.2-1.9-0.4
					c-0.5-0.3,0.4,0.4,0.4,0.4H58.8v-5h122.3c0,0-1-0.1-1.7-1.6l-116.3-0.3c0,0,7.9-8.1,6.8-19.3l23.6,0.1v-1.1l-23.8-0.8l0.1-4.3
					l24-0.5l-24.7-1.1C69.1,235.8,64.9,224.6,62.3,223.4z"/>
				
					<linearGradient id="SVGID_00000152985168761657681910000000743616476267699587_" gradientUnits="userSpaceOnUse" x1="55.8" y1="168.49" x2="146.2" y2="168.49" gradientTransform="matrix(1 0 0 -1 0 387.89)">
					<stop  offset="0" style="stop-color:#FFD308"/>
					<stop  offset="0.49" style="stop-color:#ED6D35"/>
				</linearGradient>
				
					<linearGradient id="SVGID_00000093171979798596931180000016676134403857949571_" gradientUnits="userSpaceOnUse" x1="55.3" y1="168.494" x2="150.5144" y2="168.494" gradientTransform="matrix(1 0 0 -1 0 387.89)">
					<stop  offset="0" style="stop-color:#ECF0FA"/>
					<stop  offset="1" style="stop-color:#4B8FCC"/>
				</linearGradient>
				
					<path style="fill:url(#SVGID_00000152985168761657681910000000743616476267699587_);stroke:url(#SVGID_00000093171979798596931180000016676134403857949571_);stroke-miterlimit:10;" d="
					M55.8,217.3v4.2h90.4c0,0-16.6-3.9-18.5-3.5S55.8,217.3,55.8,217.3z"/>
				
					<linearGradient id="SVGID_00000007426433477472947830000012101365450332165254_" gradientUnits="userSpaceOnUse" x1="151.7" y1="142.79" x2="177.8" y2="142.79" gradientTransform="matrix(1 0 0 -1 0 387.89)">
					<stop  offset="0" style="stop-color:#ECF0FA"/>
					<stop  offset="1" style="stop-color:#4B8FCC"/>
				</linearGradient>
				
					<line style="fill:none;stroke:url(#SVGID_00000007426433477472947830000012101365450332165254_);stroke-miterlimit:10;" x1="151.7" y1="245.1" x2="177.8" y2="245.1"/>
				
					<linearGradient id="SVGID_00000081622790828901272630000004143792827650634673_" gradientUnits="userSpaceOnUse" x1="122.48" y1="153.39" x2="139.7" y2="153.39" gradientTransform="matrix(1 0 0 -1 0 387.89)">
					<stop  offset="0" style="stop-color:#ECF0FA"/>
					<stop  offset="1" style="stop-color:#4B8FCC"/>
				</linearGradient>
				
					<line style="fill:none;stroke:url(#SVGID_00000081622790828901272630000004143792827650634673_);stroke-miterlimit:10;" x1="122.5" y1="234.5" x2="139.7" y2="234.5"/>
			</g>
			
				<linearGradient id="SVGID_00000170985012966557819080000014129560412611528101_" gradientUnits="userSpaceOnUse" x1="196.0993" y1="141.34" x2="331" y2="141.34" gradientTransform="matrix(1 0 0 -1 0 387.89)">
				<stop  offset="0" style="stop-color:#2581C4"/>
				<stop  offset="1" style="stop-color:#2581C4;stop-opacity:0"/>
			</linearGradient>
			
				<linearGradient id="SVGID_00000168836681945834180750000010652111496868180414_" gradientUnits="userSpaceOnUse" x1="195.5993" y1="141.3393" x2="331.5" y2="141.3393" gradientTransform="matrix(1 0 0 -1 0 387.89)">
				<stop  offset="0" style="stop-color:#FFEF26"/>
				<stop  offset="0.11" style="stop-color:#FFE000"/>
				<stop  offset="0.24" style="stop-color:#FFD300"/>
				<stop  offset="0.37" style="stop-color:#FECB00"/>
				<stop  offset="0.52" style="stop-color:#FDC800"/>
				<stop  offset="0.67" style="stop-color:#F18F34"/>
				<stop  offset="0.89" style="stop-color:#E95F32"/>
				<stop  offset="1" style="stop-color:#E3312D"/>
			</linearGradient>
			
				<path style="fill:url(#SVGID_00000170985012966557819080000014129560412611528101_);stroke:url(#SVGID_00000168836681945834180750000010652111496868180414_);stroke-miterlimit:10;" d="
				M327.6,223.4H232l-22.9,12.2l33.1,2.1l-38.3,0.3c0,0,14.6,15.8-7.8,28.3c0,0-0.2,2.7,6.3,3.4c0.7,0,1.3-0.2,1.9-0.4
				c0.5-0.3-0.4,0.4-0.4,0.4H331v-5H208.7c0,0,1-0.1,1.7-1.6l116.3-0.3c0,0-7.9-8.1-6.8-19.3l-23.6,0.1v-1.1l23.8-0.8l-0.1-4.3
				l-24-0.5l24.7-1.1C320.8,235.8,325,224.6,327.6,223.4z"/>
			
				<linearGradient id="SVGID_00000072988482060042290120000016726818401471209134_" gradientUnits="userSpaceOnUse" x1="243.7" y1="168.49" x2="334.1" y2="168.49" gradientTransform="matrix(1 0 0 -1 0 387.89)">
				<stop  offset="0" style="stop-color:#2581C4"/>
				<stop  offset="1" style="stop-color:#2581C4;stop-opacity:0"/>
			</linearGradient>
			
				<linearGradient id="SVGID_00000160180487233988803560000018396796837202993030_" gradientUnits="userSpaceOnUse" x1="239.3856" y1="168.494" x2="334.6" y2="168.494" gradientTransform="matrix(1 0 0 -1 0 387.89)">
				<stop  offset="0" style="stop-color:#FFEF26"/>
				<stop  offset="0.11" style="stop-color:#FFE000"/>
				<stop  offset="0.24" style="stop-color:#FFD300"/>
				<stop  offset="0.37" style="stop-color:#FECB00"/>
				<stop  offset="0.52" style="stop-color:#FDC800"/>
				<stop  offset="0.67" style="stop-color:#F18F34"/>
				<stop  offset="0.89" style="stop-color:#E95F32"/>
				<stop  offset="1" style="stop-color:#E3312D"/>
			</linearGradient>
			
				<path style="fill:url(#SVGID_00000072988482060042290120000016726818401471209134_);stroke:url(#SVGID_00000160180487233988803560000018396796837202993030_);stroke-miterlimit:10;" d="
				M334.1,217.3v4.2h-90.4c0,0,16.6-3.9,18.5-3.5S334.1,217.3,334.1,217.3z"/>
			
				<linearGradient id="SVGID_00000105403612058305216690000003886867319295015322_" gradientUnits="userSpaceOnUse" x1="212.1" y1="142.79" x2="238.2" y2="142.79" gradientTransform="matrix(1 0 0 -1 0 387.89)">
				<stop  offset="0" style="stop-color:#FFEF26"/>
				<stop  offset="0.11" style="stop-color:#FFE000"/>
				<stop  offset="0.24" style="stop-color:#FFD300"/>
				<stop  offset="0.37" style="stop-color:#FECB00"/>
				<stop  offset="0.52" style="stop-color:#FDC800"/>
				<stop  offset="0.67" style="stop-color:#F18F34"/>
				<stop  offset="0.89" style="stop-color:#E95F32"/>
				<stop  offset="1" style="stop-color:#E3312D"/>
			</linearGradient>
			
				<line style="fill:none;stroke:url(#SVGID_00000105403612058305216690000003886867319295015322_);stroke-miterlimit:10;" x1="238.2" y1="245.1" x2="212.1" y2="245.1"/>
			
				<linearGradient id="SVGID_00000114761619652297675620000017264443887181788057_" gradientUnits="userSpaceOnUse" x1="250.2" y1="153.39" x2="267.42" y2="153.39" gradientTransform="matrix(1 0 0 -1 0 387.89)">
				<stop  offset="0" style="stop-color:#FFEF26"/>
				<stop  offset="0.11" style="stop-color:#FFE000"/>
				<stop  offset="0.24" style="stop-color:#FFD300"/>
				<stop  offset="0.37" style="stop-color:#FECB00"/>
				<stop  offset="0.52" style="stop-color:#FDC800"/>
				<stop  offset="0.67" style="stop-color:#F18F34"/>
				<stop  offset="0.89" style="stop-color:#E95F32"/>
				<stop  offset="1" style="stop-color:#E3312D"/>
			</linearGradient>
			
				<line style="fill:none;stroke:url(#SVGID_00000114761619652297675620000017264443887181788057_);stroke-miterlimit:10;" x1="267.4" y1="234.5" x2="250.2" y2="234.5"/>
			<circle class="st2" cx="196.1" cy="70" r="33.9"/>
			<text transform="matrix(1 0 0 1 173.27 94.9)" class="st6 st19 st20">s</text>
			<text transform="matrix(1 0 0 1 173.27 94.9)" class="st2 st6 st19 st20">s</text>
			<path d="M199.8,126.2c1.7-2.4,3.1-5,4.3-7.7c1.2-2.6,1.5-5.4,3.2-7.7c1-1.4,3-1.8,4.4-0.8c2.4,1.8,1.1,5.3,0,7.5
				c-0.9,1.5-1.9,2.8-3.1,4.1c-2.2,2.5-5.1,4.4-8.2,5.5c-0.3,0.1-0.6-0.2-0.7-0.5C199.7,126.5,199.7,126.3,199.8,126.2L199.8,126.2z
				"/>
			<path d="M191.6,127c-5.6-2-12.5-8.1-12.7-14.5c0.1-1.7,1.5-3.1,3.3-3.1c1,0,1.8,0.5,2.4,1.3c0.8,1.2,1.4,2.5,1.8,3.9
				c0.8,2.7,1.9,5.3,3.3,7.7c0.7,1.3,1.5,2.6,2.4,3.9c0.2,0.2,0.2,0.5,0,0.7C192,127,191.8,127.1,191.6,127z"/>
			<g class="st3">
				<path class="st5" d="M201.4,237.3c31.1-22.9,70.4-40,109.6-37.9c5.6,0.4,11.3,1.1,16.8,2.3c0.5,0.1,0.9,0.6,0.8,1.1
					c-0.1,0.5-0.6,0.8-1.1,0.7c0,0-0.1,0-0.1,0c-5.4-1.3-10.9-2.1-16.5-2.4c-28-1.9-55.8,6.5-80.5,19.1c-10,5-19.6,10.9-28.6,17.5
					c-0.1,0.1-0.3,0.1-0.4,0C201.2,237.5,201.2,237.4,201.4,237.3L201.4,237.3z"/>
			</g>
		</g>
	</g>
</g>
</svg>
