<?xml version="1.0" encoding="utf-8"?>
<!-- Generator: Adobe Illustrator 26.0.3, SVG Export Plug-In . SVG Version: 6.00 Build 0)  -->
<svg version="1.1" xmlns="http://www.w3.org/2000/svg" xmlns:xlink="http://www.w3.org/1999/xlink" x="0px" y="0px"
	 viewBox="0 0 595.3 841.9" style="enable-background:new 0 0 595.3 841.9;" xml:space="preserve">
<style type="text/css">
	.st0{display:none;}
	.st1{fill:none;stroke:#000000;stroke-miterlimit:10;}
	.st2{fill:none;stroke:#BE1622;stroke-miterlimit:10;}
	.st3{fill:#BE1622;}
</style>
<g id="Слой_1" class="st0">
	
		<image style="display:inline;overflow:visible;opacity:0.28;" width="1024" height="1536" xlink:href="../Downloads/ChatGPT Image 4 авг. 2025 г., 18_34_59.png"  transform="matrix(0.363 0 0 0.363 111.8056 142.1964)">
	</image>
</g>
<g id="Слой_2">
	<g id="Body">
		<path class="st1" d="M306.9,464.6c68.1-9.4,69.7-32.9,70.7-37.6c1-4.7,1,11.5,1,11.5c19.3-16.2-0.5-33.9-0.5-33.9
			c6.8,4.7,14.6,6.3,14.6,6.3c4.2-16.7-20.3-29.2-20.3-29.2c4.2-40.2-18.8-61.6-18.8-61.6C469.4,163.6,410.5,162,410.5,162
			c-110.6,36-83.7,135.5-83.7,135.5l-5.2-3c-5.6-33.8-35.6-29.2-35.6-29.2s37.7,46.2,17.1,25c-20.6-21.1-32.9-8.6-38.3-1.2
			c-5.5,7.4,26.7,4.8,26.7,4.8l-27.8,2.8c0,0-24.3-228.9-64-135s39,142.6,39,142.6s-34.6,17.7-36.2,66.8c0,0-25.6,4.7-26.6,31.3
			c0,0,4.2,4.2,7.3-4.7s-24,40.7,57.4,63.1c0,0-25,10.4-23.5,26.6s14.1,0,14.1,0s-20.9,27.1,2.6,42.3c0,0-3.7-22.4,4.2-24
			s-9.4,31.3,19.3,46.4"/>
		<path class="st1" d="M340.5,457.5c0,0,4.3,32.7,40.8,49.9c36.5,17.2,62.6,86.6,11.5,121.6"/>
		<path class="st1" d="M400.7,622.7c0,0,9.5,7.8,0,20.3c-9.5,12.5-78.4,26.1-93.8,16.2c-15.4-9.9,0-30.3,0-30.3s13.8-21.4,58.2-6.3"
			/>
		<path class="st1" d="M334.3,617.3c0,0-40.2-60.9,34.4-85.4"/>
		<path class="st1" d="M224.5,520c0,0,6.5,79.2-2.4,89.6c-8.9,10.4-25.6,11.6-20.3,30.3s39.1,6.7,39.1,6.7s16.2,28.7,51.7-6.7
			c0,0,56.7-120.1,47.9-124.7"/>
		<path class="st1" d="M309.3,478.2c0,0-46.4,143-52.2,142.4c-5.7-0.5-25,13.6-16.2,26.1"/>
		<path class="st1" d="M225.4,531.9c0,0-17.3-23-33.5,14.6s33.5,58.4,33.5,58.4s-74.7-32.3-76.8,24c0,0,2.2,16.2,52.2,7.8"/>
		<path class="st1" d="M409.1,533.9c0,0,11.8-20.3,22.8-16.6c11,3.7,3.7,23,3.7,23s38.1-20.2,7.3,41.8c0,0,17,12.3-30.4,26.5"/>
	</g>
	<path class="st1" d="M218,407.2c0,0,10.4-4.2,12-7.3"/>
	<path class="st1" d="M225.4,403.7c0,0,1.5,27.6,31.2,13.5c0,0,21.4,21.3,48.5-4.7"/>
	<path class="st1" d="M295.7,405.1c1.7,2,4.8,5,9.4,7.3c5.6,2.8,10.8,3.2,13.6,3.2"/>
	<path class="st1" d="M241.9,421.1c0,0,22.6,84.7,60.9-6.6"/>
	<path class="st1" d="M249.8,457.5c0,0,6.8,20.7,38.1,4.5"/>
	<path class="st1" d="M244.6,390c0,0,20.3-15.1,32.3,6.8c0,0,3.1,8.9-19.8,13.6C257.1,410.3,240.4,402,244.6,390z"/>
	<path class="st1" d="M245,380.3c0,0-23.1,19.5-29.3-20.8S245,380.3,245,380.3z"/>
	<path class="st1" d="M295.1,383.8c0,0,19.9,24.9,34.6-15.5S295.1,383.8,295.1,383.8z"/>
	<polyline class="st1" points="273.9,425.3 279.5,439.6 290.4,422.6 	"/>
	<polyline class="st1" points="241.9,422.6 247.9,433.3 256.4,417.1 257.1,410.3 	"/>
	<circle class="st2" cx="313.7" cy="377.5" r="8.2"/>
	<circle class="st2" cx="230" cy="372.5" r="8.2"/>
	<path class="st1" d="M253.8,361.5c0,0-21.3-26.7-35.8-27.8"/>
	<path class="st1" d="M290.4,361.5c0,0,39.9-31.3,47.6-27.8"/>
	<g>
		<g>
			<path class="st3" d="M230.1,375.1c3.2,0,3.2-5,0-5C226.9,370.1,226.9,375.1,230.1,375.1L230.1,375.1z"/>
		</g>
	</g>
	<g>
		<g>
			<path class="st3" d="M314.3,380c3.2,0,3.2-5,0-5C311.1,375,311.1,380,314.3,380L314.3,380z"/>
		</g>
	</g>
</g>
</svg>
